# This file uses inches as units for non-parametric coordinates.

mtllib Sword.mtl
g default
v 32.850159 -0.283078 0.950817
v 32.850159 -0.112795 0.950817
v 32.850159 -0.112795 1.159207
v 32.850159 -0.283078 1.159207
v 29.299356 -0.112795 -2.241898
v 27.746761 -0.112795 1.159207
v 27.746761 -0.283078 1.159207
v 29.299356 -0.283078 -2.241898
v 23.324066 -0.112795 -3.173798
v 23.324066 -0.112795 1.159207
v 23.324066 -0.283078 1.159207
v 23.324066 -0.283078 -3.173798
v 18.449469 -0.112795 -3.173798
v 18.449469 -0.112795 1.159207
v 18.449469 -0.283078 1.159207
v 18.449469 -0.283078 -3.173798
v 13.729646 -0.112795 -1.253553
v 12.738945 -0.112795 1.159207
v 12.738945 -0.283078 1.159207
v 13.729646 -0.283078 -1.253553
v 7.316088 -0.112795 -0.627031
v 7.240804 -0.112795 1.159207
v 7.240804 -0.283078 1.159207
v 7.316088 -0.283078 -0.627031
v 4.450284 -0.112795 -0.610973
v 4.372706 -0.112795 1.159207
v 4.372706 -0.283078 1.159207
v 4.450284 -0.283078 -0.610973
v 4.379758 0.215236 -0.740436
v 4.323638 0.215236 1.288666
v 4.323637 -0.611108 1.288666
v 4.379758 -0.611108 -0.740436
v -5.166915 0.215236 -0.740436
v -5.223035 0.215236 1.288666
v -5.223035 -0.611108 1.288666
v -5.166915 -0.611108 -0.740436
vt 0.625000 0.000000
vt 0.625000 0.250000
vt 0.625000 0.500000
vt 0.625000 0.750000
vt 0.625000 1.000000
vt 0.875000 0.000000
vt 0.875000 0.250000
vt 0.599485 0.250000
vt 0.599485 0.500000
vt 0.599485 0.750000
vt 0.599485 0.000000
vt 0.599485 1.000000
vt 0.577374 0.250000
vt 0.577374 0.500000
vt 0.577374 0.750000
vt 0.577374 0.000000
vt 0.577374 1.000000
vt 0.553003 0.250000
vt 0.553003 0.500000
vt 0.553003 0.750000
vt 0.553003 0.000000
vt 0.553003 1.000000
vt 0.524453 0.250000
vt 0.524453 0.500000
vt 0.524453 0.750000
vt 0.524453 0.000000
vt 0.524453 1.000000
vt 0.496965 0.250000
vt 0.496965 0.500000
vt 0.496965 0.750000
vt 0.496965 0.000000
vt 0.496965 1.000000
vt 0.482626 0.250000
vt 0.482626 0.500000
vt 0.482626 0.750000
vt 0.482626 0.000000
vt 0.482626 1.000000
vt 0.000000 0.000000
vt 1.000000 0.000000
vt 1.000000 1.000000
vt 0.000000 1.000000
vt 0.000000 0.000000
vt 1.000000 0.000000
vt 1.000000 1.000000
vt 0.000000 1.000000
vt 0.000000 0.000000
vt 1.000000 0.000000
vt 1.000000 1.000000
vt 0.000000 1.000000
vt 0.000000 0.000000
vt 1.000000 0.000000
vt 1.000000 1.000000
vt 0.000000 1.000000
vt 0.000000 0.000000
vt 1.000000 0.000000
vt 1.000000 1.000000
vt 0.000000 1.000000
vt 0.000000 0.000000
vt 1.000000 0.000000
vt 1.000000 0.999889
vt 0.000000 1.000000
vt 0.000000 0.000000
vt 1.000000 0.000000
vt 0.999964 0.999889
vt 0.000026 0.999861
vt 0.000000 0.000000
vt 1.000000 0.000000
vt 1.000000 1.000000
vt 0.000000 0.999889
vt 0.000000 0.000000
vt 1.000000 0.000000
vt 0.999965 1.999970
vt 0.000035 1.999970
vn 1.000000 0.000000 0.000000
vn 1.000000 0.000000 0.000000
vn 1.000000 0.000000 0.000000
vn 1.000000 0.000000 0.000000
vn 0.000000 1.000000 0.000000
vn 0.000000 1.000000 0.000000
vn 0.000000 1.000000 0.000000
vn 0.000000 1.000000 0.000000
vn 0.000000 0.000000 1.000000
vn 0.000000 0.000000 1.000000
vn 0.000000 0.000000 1.000000
vn 0.000000 0.000000 1.000000
vn 0.000000 -1.000000 0.000000
vn 0.000000 -1.000000 0.000000
vn 0.000000 -1.000000 0.000000
vn 0.000000 -1.000000 0.000000
vn 0.397335 0.000000 -0.917674
vn 0.668617 0.000000 -0.743607
vn 0.668617 0.000000 -0.743607
vn 0.397335 0.000000 -0.917674
vn 0.000000 1.000000 0.000000
vn 0.000000 1.000000 0.000000
vn 0.000000 0.000000 1.000000
vn 0.000000 0.000000 1.000000
vn 0.000000 -1.000000 0.000000
vn 0.000000 -1.000000 0.000000
vn 0.085575 0.000000 -0.996332
vn 0.085575 0.000000 -0.996332
vn 0.000000 1.000000 0.000000
vn 0.000000 1.000000 0.000000
vn 0.000000 0.000000 1.000000
vn 0.000000 0.000000 1.000000
vn 0.000000 -1.000000 0.000000
vn 0.000000 -1.000000 0.000000
vn -0.196250 0.000000 -0.980554
vn -0.196250 0.000000 -0.980554
vn 0.000000 1.000000 0.000000
vn 0.000000 1.000000 0.000000
vn 0.000000 0.000000 1.000000
vn 0.000000 0.000000 1.000000
vn 0.000000 -1.000000 0.000000
vn 0.000000 -1.000000 0.000000
vn -0.222991 0.000000 -0.974821
vn -0.222991 0.000000 -0.974821
vn 0.000000 1.000000 0.000000
vn 0.000000 1.000000 0.000000
vn 0.000000 0.000000 1.000000
vn 0.000000 0.000000 1.000000
vn 0.000000 -1.000000 0.000000
vn 0.000000 -1.000000 0.000000
vn -0.069083 0.000000 -0.997611
vn -0.069083 0.000000 -0.997611
vn 0.000000 1.000000 0.000000
vn 0.000000 1.000000 0.000000
vn 0.000000 0.000000 1.000000
vn 0.000000 0.000000 1.000000
vn 0.000000 -1.000000 0.000000
vn 0.000000 -1.000000 0.000000
vn -0.005603 0.000000 -0.999984
vn -0.005603 0.000000 -0.999984
vn 0.983199 0.179228 0.034599
vn 0.983199 0.179228 0.034599
vn 0.983199 0.179228 0.034599
vn 0.983199 0.179228 0.034599
vn 0.935085 0.000000 0.354423
vn 0.935085 0.000000 0.354423
vn 0.935085 0.000000 0.354423
vn 0.935085 0.000000 0.354423
vn 0.983199 -0.179229 0.034599
vn 0.983199 -0.179229 0.034599
vn 0.983199 -0.179229 0.034599
vn 0.983199 -0.179229 0.034599
vn 0.878152 0.000000 -0.478383
vn 0.878152 0.000000 -0.478382
vn 0.878152 0.000000 -0.478382
vn 0.878152 0.000000 -0.478382
vn 0.000000 1.000000 0.000000
vn 0.000000 1.000000 0.000000
vn 0.000000 1.000000 0.000000
vn 0.000000 1.000000 0.000000
vn 0.000000 0.000000 1.000000
vn 0.000000 0.000000 1.000000
vn 0.000000 0.000000 1.000000
vn 0.000000 0.000000 1.000000
vn 0.000000 -1.000000 -0.000000
vn 0.000000 -1.000000 -0.000000
vn 0.000000 -1.000000 -0.000000
vn 0.000000 -1.000000 -0.000000
vn 0.000000 0.000000 -1.000000
vn 0.000000 0.000000 -1.000000
vn 0.000000 0.000000 -1.000000
vn 0.000000 0.000000 -1.000000
vn -0.999618 0.000000 -0.027647
vn -0.999618 0.000000 -0.027647
vn -0.999618 0.000000 -0.027647
vn -0.999618 0.000000 -0.027647
s off
g Sword
usemtl blinn1SG
f 1/1/1 2/2/2 3/7/3 4/6/4
s 1
f 5/8/5 6/9/6 3/3/7 2/2/8
s 2
f 7/10/9 4/4/10 3/3/11 6/9/12
s 3
f 8/12/13 1/5/14 4/4/15 7/10/16
s 4
f 5/8/17 2/2/18 1/1/19 8/11/20
s 1
f 9/13/21 10/14/22 6/9/6 5/8/5
s 2
f 11/15/23 7/10/9 6/9/12 10/14/24
s 3
f 12/17/25 8/12/13 7/10/16 11/15/26
s 4
f 9/13/27 5/8/17 8/11/20 12/16/28
s 1
f 13/18/29 14/19/30 10/14/22 9/13/21
s 2
f 15/20/31 11/15/23 10/14/24 14/19/32
s 3
f 16/22/33 12/17/25 11/15/26 15/20/34
s 4
f 13/18/35 9/13/27 12/16/28 16/21/36
s 1
f 17/23/37 18/24/38 14/19/30 13/18/29
s 2
f 19/25/39 15/20/31 14/19/32 18/24/40
s 3
f 20/27/41 16/22/33 15/20/34 19/25/42
s 4
f 17/23/43 13/18/35 16/21/36 20/26/44
s 1
f 21/28/45 22/29/46 18/24/38 17/23/37
s 2
f 23/30/47 19/25/39 18/24/40 22/29/48
s 3
f 24/32/49 20/27/41 19/25/42 23/30/50
s 4
f 21/28/51 17/23/43 20/26/44 24/31/52
s 1
f 25/33/53 26/34/54 22/29/46 21/28/45
s 2
f 27/35/55 23/30/47 22/29/48 26/34/56
s 3
f 28/37/57 24/32/49 23/30/50 27/35/58
s 4
f 25/33/59 21/28/51 24/31/52 28/36/60
s off
usemtl lambert2SG
f 25/38/61 29/41/62 30/40/63 26/39/64
f 26/42/65 30/45/66 31/44/67 27/43/68
f 27/46/69 31/49/70 32/48/71 28/47/72
f 28/50/73 32/53/74 29/52/75 25/51/76
f 29/54/77 33/57/78 34/56/79 30/55/80
f 30/58/81 34/61/82 35/60/83 31/59/84
f 31/62/85 35/65/86 36/64/87 32/63/88
f 32/66/89 36/69/90 33/68/91 29/67/92
f 33/70/93 36/73/94 35/72/95 34/71/96
