# This file uses inches as units for non-parametric coordinates.

mtllib LanternArm.mtl
g default
v -5.997593 -2.333382 0.913225
v 8.653669 4.712164 1.822804
v -5.997593 -1.809172 0.913225
v 9.133942 4.922400 1.822804
v -5.997593 -1.809172 -0.737839
v 9.133942 4.922400 -1.647418
v -5.997593 -2.333382 -0.737839
v 8.653669 4.712164 -1.647418
v 9.230995 3.447977 -0.490677
v -5.997593 -1.809172 -0.187484
v -5.997593 -2.333382 -0.187484
v 8.711998 3.521704 -0.490677
v 9.230995 3.447977 0.666064
v -5.997593 -1.809172 0.362870
v -5.997593 -2.333382 0.362870
v 8.711998 3.521704 0.666064
v -0.004433 -0.697104 1.251062
v 0.454102 -0.487865 0.475483
v 0.454102 -0.487865 -0.300097
v -0.004433 -0.697104 -1.075676
v 0.478895 -1.309658 -1.075676
v 0.937431 -1.443523 -0.300097
v 0.937431 -1.443523 0.475483
v 0.478895 -1.309658 1.251062
v 7.225073 1.933571 1.409047
v 6.674940 1.971983 1.409047
v 6.027941 2.439104 0.528145
v 6.027941 2.439104 -0.352757
v 6.674940 1.971983 -1.233661
v 7.225073 1.933571 -1.233661
v 6.660709 2.334553 -0.352757
v 6.660709 2.334553 0.528145
v 9.074478 4.813728 -0.466846
v 9.074478 4.813728 0.642231
v 8.127155 5.851767 1.751306
v 7.886711 5.385874 1.751306
v 8.588280 4.618158 0.642231
v 8.588280 4.618158 -0.466846
v 7.886711 5.385874 -1.575920
v 8.127155 5.851767 -1.575920
v 7.966225 5.814754 -0.441657
v 7.966225 5.814754 0.617043
v 6.681711 5.915642 1.675745
v 6.808393 5.406891 1.675745
v 7.760357 5.332802 0.617043
v 7.760357 5.332802 -0.441657
v 6.808393 5.406891 -1.500359
v 6.681711 5.915642 -1.500359
v 6.232975 5.608574 -0.412139
v 6.232975 5.608574 0.587525
v 5.435900 4.781603 1.587190
v 5.900368 4.538387 1.587190
v 6.491531 5.152676 0.587525
v 6.491531 5.152676 -0.412139
v 5.900368 4.538387 -1.411803
v 5.435900 4.781603 -1.411803
v 5.336456 4.005495 -0.381206
v 5.336456 4.005495 0.556593
v 5.493155 3.019117 1.494391
v 5.975569 3.224478 1.494391
v 5.858419 3.957748 0.556593
v 5.858419 3.957748 -0.381206
v 5.975569 3.224478 -1.319005
v 5.493155 3.019117 -1.319005
v -6.249214 -2.619856 1.204654
v 0.564770 -1.649952 1.578380
v -0.094547 -0.422230 1.633991
v -6.298985 -1.572447 1.202074
v 0.291986 -0.041847 0.546860
v -6.369080 -1.505646 0.376223
v -6.298985 -1.572447 -1.026688
v -0.094547 -0.422230 -1.458606
v 0.564770 -1.649952 -1.402994
v -6.249214 -2.619856 -1.029267
v -6.314407 -2.692894 0.389145
v 1.109840 -1.891193 0.462171
v 8.445339 3.154457 0.822058
v 8.465834 4.495205 2.207456
v 9.556461 3.133175 0.825067
v 9.474274 4.950546 2.159986
v 0.291986 -0.041847 -0.371474
v -6.369080 -1.505646 -0.200836
v -6.314407 -2.692894 -0.213758
v 1.109840 -1.891193 -0.286783
v 8.445339 3.154457 -0.646671
v 9.556461 3.133175 -0.649680
v 8.465834 4.495205 -2.032069
v 9.474274 4.950546 -1.984600
v 6.573622 1.994236 1.877608
v 5.562550 2.544991 0.578243
v 5.562550 2.544991 -0.402856
v 6.573622 1.994236 -1.702222
v 7.585085 1.785172 -1.514158
v 7.131937 2.245676 -0.333951
v 7.131937 2.245676 0.509338
v 7.585085 1.785172 1.689545
v 8.312561 6.174309 2.054456
v 7.719336 5.175152 2.148661
v 9.484022 5.063005 0.621121
v 9.484018 5.063005 -0.445735
v 8.312561 6.174309 -1.879069
v 7.719336 5.175152 -1.973274
v 8.184805 4.359177 -0.488014
v 8.184805 4.359177 0.663401
v 8.089500 6.278053 -0.420032
v 8.089500 6.278053 0.595418
v 6.583874 6.277802 1.975044
v 6.838287 5.147163 2.078185
v 7.656912 4.864670 0.638570
v 7.656912 4.864670 -0.463182
v 6.838287 5.147163 -1.902799
v 6.583874 6.277802 -1.799657
v 5.957108 6.000591 -0.389115
v 5.957108 6.000591 0.564501
v 5.090239 4.941126 1.879392
v 6.112877 4.397278 1.993684
v 6.784304 4.773067 0.609680
v 6.784304 4.773067 -0.434294
v 6.112877 4.397278 -1.818298
v 5.090239 4.941126 -1.704005
v 4.857502 4.023800 -0.357141
v 4.857502 4.023800 0.532528
v 5.143194 2.855495 1.779112
v 6.235952 3.296371 1.891052
v 6.337934 3.960571 0.575789
v 6.337934 3.960571 -0.400402
v 6.235952 3.296371 -1.715666
v 5.143194 2.855495 -1.603725
v -8.841389 -5.441948 -0.976700
v -8.962208 -4.737236 -1.691693
v -9.127251 -3.774582 -1.953399
v -9.292294 -2.811928 -1.691693
v -9.413116 -2.107216 -0.976700
v -9.457340 -1.849274 0.000000
v -9.413116 -2.107216 0.976700
v -9.292294 -2.811928 1.691693
v -9.127251 -3.774582 1.953400
v -8.962208 -4.737236 1.691693
v -8.841389 -5.441948 0.976700
v -8.797165 -5.699890 0.000000
v -3.748600 -5.084232 -1.270000
v -3.905701 -4.167897 -2.199704
v -4.120308 -2.916161 -2.540000
v -4.334911 -1.664425 -2.199704
v -4.492012 -0.748089 -1.270000
v -4.549519 -0.412687 0.000000
v -4.492012 -0.748089 1.270000
v -4.334911 -1.664425 2.199704
v -4.120308 -2.916161 2.540000
v -3.905701 -4.167897 2.199704
v -3.748600 -5.084232 1.270000
v -3.691097 -5.419634 0.000000
v -9.127251 -3.774582 0.000000
v -4.120308 -2.916161 0.000000
vt 0.012631 1.000000
vt 0.117539 1.000000
vt 0.135391 0.571664
vt 0.000000 1.000000
vt 0.000000 0.000000
vt 0.135391 0.428336
vt 0.117539 0.000000
vt 0.012631 0.000000
vt 0.334372 1.000000
vt 0.371867 0.556135
vt 0.371867 0.443865
vt 0.334372 0.000000
vt 0.824081 0.533197
vt 0.727631 1.000000
vt 0.836880 1.000000
vt 1.000000 1.000000
vt 0.824081 0.466803
vt 1.000000 0.000000
vt 0.727631 0.000000
vt 0.836880 0.000000
vt 0.713229 0.368984
vt 0.713229 0.631016
vt 0.716667 1.000000
vt 0.716667 0.000000
vt 0.686895 0.437580
vt 0.686895 0.565933
vt 0.597333 1.000000
vt 0.597333 0.000000
vt 0.506678 0.473135
vt 0.506678 0.526865
vt 0.411392 1.000000
vt 0.411392 0.000000
vt 0.375000 0.312500
vt 0.395833 0.312500
vt 0.395833 0.688440
vt 0.375000 0.688440
vt 0.416667 0.312500
vt 0.416667 0.688440
vt 0.437500 0.312500
vt 0.437500 0.688440
vt 0.458333 0.312500
vt 0.458333 0.688440
vt 0.479167 0.312500
vt 0.479167 0.688440
vt 0.500000 0.312500
vt 0.500000 0.688440
vt 0.520833 0.312500
vt 0.520833 0.688440
vt 0.541667 0.312500
vt 0.541667 0.688440
vt 0.562500 0.312500
vt 0.562500 0.688440
vt 0.583333 0.312500
vt 0.583333 0.688440
vt 0.604167 0.312500
vt 0.604167 0.688440
vt 0.625000 0.312500
vt 0.625000 0.688440
vt 0.578125 0.020934
vt 0.635316 0.078125
vt 0.500000 0.150000
vt 0.500000 0.000000
vt 0.421875 0.020934
vt 0.364684 0.078125
vt 0.343750 0.156250
vt 0.364684 0.234375
vt 0.421875 0.291566
vt 0.500000 0.312500
vt 0.578125 0.291566
vt 0.635316 0.234375
vt 0.656250 0.156250
vt 0.635316 0.921875
vt 0.578125 0.979066
vt 0.500000 0.837500
vt 0.500000 1.000000
vt 0.421875 0.979066
vt 0.364684 0.921875
vt 0.343750 0.843750
vt 0.364684 0.765625
vt 0.421875 0.708434
vt 0.500000 0.687500
vt 0.578125 0.708434
vt 0.635316 0.765625
vt 0.656250 0.843750
vn -0.055153 -0.040444 0.997658
vn -0.007349 -0.091645 0.995765
vn -0.019065 -0.079141 0.996681
vn -0.055153 -0.040444 0.997658
vn -0.204027 0.960209 0.190711
vn -0.277467 0.913451 0.297691
vn -0.327668 0.920486 0.212928
vn -0.209864 0.972237 0.103504
vn -0.055153 -0.040445 -0.997658
vn -0.019065 -0.079142 -0.996681
vn -0.007349 -0.091645 -0.995765
vn -0.055153 -0.040445 -0.997658
vn 0.112466 -0.987902 0.106779
vn 0.373185 -0.927650 0.014103
vn 0.296435 -0.951864 0.077981
vn 0.115494 -0.975471 0.187395
vn 0.147597 -0.643832 0.750796
vn 0.084937 -0.874582 0.477381
vn 0.083649 -0.877822 0.471627
vn 0.147597 -0.643832 0.750796
vn -0.997886 -0.046016 0.045886
vn -0.995553 -0.045959 0.082233
vn -0.995553 -0.045959 0.082233
vn -0.997912 -0.046016 0.045322
vn -0.209864 0.972237 -0.103504
vn -0.327668 0.920486 -0.212928
vn -0.277466 0.913451 -0.297691
vn -0.204028 0.960209 -0.190711
vn -0.995553 -0.045959 -0.082233
vn -0.997886 -0.046016 -0.045886
vn -0.997912 -0.046016 -0.045322
vn -0.995553 -0.045959 -0.082233
vn 0.115494 -0.975471 -0.187395
vn 0.296435 -0.951864 -0.077981
vn 0.373185 -0.927650 -0.014103
vn 0.112466 -0.987902 -0.106779
vn 0.083649 -0.877822 -0.471627
vn 0.084937 -0.874582 -0.477381
vn 0.147597 -0.643832 -0.750796
vn 0.147597 -0.643832 -0.750796
vn -0.502197 0.753835 0.423711
vn -0.619083 0.736062 0.273770
vn -0.619083 0.736062 -0.273770
vn -0.502197 0.753835 -0.423711
vn 0.031781 -0.110174 -0.993404
vn 0.031677 -0.112589 -0.993137
vn 0.691532 -0.721671 0.031223
vn 0.765162 -0.643755 0.010335
vn 0.765162 -0.643756 -0.010335
vn 0.691532 -0.721671 -0.031223
vn 0.031677 -0.112589 0.993137
vn 0.031781 -0.110174 0.993404
vn -0.021510 0.095516 0.995196
vn -0.026528 0.096314 0.994998
vn 0.005248 0.091218 0.995817
vn 0.005248 0.091218 0.995817
vn 0.888816 0.458050 0.014013
vn 0.575986 0.817332 0.014426
vn 0.929637 0.367021 0.032711
vn 0.988014 0.153937 0.011507
vn 0.888816 0.458050 -0.014014
vn 0.988014 0.153937 -0.011509
vn 0.575986 0.817332 -0.014426
vn 0.929637 0.367023 -0.032709
vn -0.026528 0.096314 -0.994998
vn -0.021510 0.095516 -0.995196
vn 0.005248 0.091218 -0.995817
vn 0.005248 0.091218 -0.995817
vn -0.852900 -0.509719 -0.112909
vn -0.630928 -0.745293 -0.215564
vn -0.873818 -0.444043 -0.198160
vn -0.947194 -0.310067 -0.081748
vn -0.852900 -0.509719 0.112909
vn -0.947194 -0.310067 0.081749
vn -0.630928 -0.745293 0.215565
vn -0.873818 -0.444043 0.198160
vn 0.219141 0.975689 -0.002732
vn 0.219141 0.975689 0.002731
vn -0.221357 0.975190 0.002563
vn -0.085097 0.070802 0.993854
vn -0.091007 0.065068 0.993722
vn 0.176975 -0.959159 0.220666
vn -0.143635 -0.980913 0.131065
vn -0.143635 -0.980913 -0.131065
vn 0.176975 -0.959159 -0.220666
vn -0.091007 0.065068 -0.993722
vn -0.085097 0.070803 -0.993854
vn -0.221357 0.975190 -0.002563
vn -0.584766 0.811202 -0.000079
vn -0.584766 0.811202 0.000079
vn -0.880749 0.473580 -0.001711
vn -0.113772 -0.012837 0.993424
vn -0.113205 -0.020435 0.993362
vn 0.832052 -0.505523 0.228333
vn 0.648364 -0.748683 0.138191
vn 0.648365 -0.748683 -0.138192
vn 0.832052 -0.505523 -0.228333
vn -0.113206 -0.020435 -0.993361
vn -0.113772 -0.012836 -0.993424
vn -0.880750 0.473579 0.001711
vn -0.996719 0.080047 0.011958
vn -0.996719 0.080047 -0.011958
vn -0.924159 -0.377364 -0.059388
vn -0.053018 -0.042811 0.997675
vn -0.042373 -0.037824 0.998386
vn 0.917183 0.365966 0.157624
vn 0.979522 0.171659 0.105215
vn 0.979522 0.171659 -0.105215
vn 0.917183 0.365966 -0.157624
vn -0.042373 -0.037824 -0.998386
vn -0.053019 -0.042811 -0.997675
vn -0.924159 -0.377364 0.059388
vn 0.050431 0.021442 -0.998497
vn 0.050431 0.021442 -0.998497
vn 0.036589 0.021650 -0.999096
vn 0.027671 0.021782 -0.999380
vn 0.194204 -0.977093 -0.087030
vn 0.197677 -0.979340 -0.042623
vn 0.350905 -0.920787 -0.170344
vn 0.278953 -0.936304 -0.213354
vn 0.050431 0.021442 0.998497
vn 0.050431 0.021442 0.998497
vn 0.027671 0.021782 0.999380
vn 0.036589 0.021650 0.999096
vn -0.131404 0.988719 -0.071887
vn -0.134951 0.980094 -0.145618
vn -0.296774 0.954910 -0.008472
vn -0.380961 0.923794 0.038386
vn -0.088798 0.650017 -0.754714
vn -0.088798 0.650017 -0.754714
vn 0.011411 0.880623 -0.473680
vn -0.000354 0.859913 -0.510441
vn 1.000000 0.000000 0.000000
vn 1.000000 0.000000 0.000000
vn 1.000000 0.000000 0.000000
vn 1.000000 0.000000 0.000000
vn 0.197677 -0.979340 0.042623
vn 0.194204 -0.977093 0.087030
vn 0.278953 -0.936304 0.213354
vn 0.350905 -0.920787 0.170344
vn 1.000000 0.000000 0.000000
vn 1.000000 0.000000 0.000000
vn 1.000000 0.000000 0.000000
vn 1.000000 0.000000 0.000000
vn -0.134951 0.980094 0.145618
vn -0.131404 0.988719 0.071887
vn -0.380961 0.923794 -0.038386
vn -0.296774 0.954910 0.008472
vn 0.011411 0.880623 0.473680
vn -0.088798 0.650017 0.754713
vn -0.088798 0.650017 0.754713
vn -0.000354 0.859913 0.510441
vn 0.673701 -0.709188 -0.207796
vn 0.553643 -0.743783 -0.374522
vn 0.673701 -0.709188 0.207796
vn 0.553643 -0.743783 0.374522
vn 0.008773 0.030553 0.999495
vn 0.010273 0.028019 0.999555
vn -0.748902 0.657778 -0.080459
vn -0.659496 0.734859 -0.158265
vn -0.748902 0.657778 0.080459
vn -0.659496 0.734859 0.158265
vn 0.010273 0.028019 -0.999555
vn 0.008773 0.030553 -0.999495
vn 0.049874 -0.026116 -0.998414
vn 0.040987 -0.043691 -0.998204
vn 0.040987 -0.043691 -0.998204
vn 0.051005 -0.023876 -0.998413
vn -0.851263 -0.522953 0.043265
vn -0.975727 -0.217406 0.026286
vn -0.890096 -0.447580 0.086032
vn -0.536718 -0.839038 0.089163
vn -0.851263 -0.522954 -0.043265
vn -0.975727 -0.217406 -0.026286
vn -0.536717 -0.839038 -0.089163
vn -0.890096 -0.447581 -0.086032
vn 0.051005 -0.023876 0.998413
vn 0.040987 -0.043690 0.998204
vn 0.040987 -0.043690 0.998204
vn 0.049874 -0.026116 0.998414
vn 0.845252 0.532616 0.043237
vn 0.974337 0.223348 0.027982
vn 0.891905 0.444205 0.084772
vn 0.559360 0.824113 0.089184
vn 0.845252 0.532616 -0.043237
vn 0.974337 0.223348 -0.027982
vn 0.559361 0.824113 -0.089184
vn 0.891905 0.444206 -0.084772
vn -0.238304 -0.970198 -0.043898
vn -0.238304 -0.970198 0.043898
vn 0.228425 -0.969030 0.093825
vn 0.053639 0.014638 -0.998453
vn 0.052718 0.017996 -0.998447
vn -0.212435 0.972932 -0.090962
vn 0.195531 0.979712 -0.043958
vn 0.195531 0.979712 0.043958
vn -0.212435 0.972932 0.090961
vn 0.052719 0.017996 0.998447
vn 0.053639 0.014638 0.998453
vn 0.228425 -0.969030 -0.093825
vn 0.573325 -0.817952 -0.047468
vn 0.573325 -0.817952 0.047468
vn 0.882460 -0.460081 0.097924
vn 0.026140 0.048194 -0.998496
vn 0.023312 0.049642 -0.998495
vn -0.871784 0.481018 -0.092807
vn -0.608912 0.791913 -0.045820
vn -0.608912 0.791913 0.045820
vn -0.871785 0.481018 0.092807
vn 0.023312 0.049642 0.998495
vn 0.026140 0.048194 0.998496
vn 0.882460 -0.460081 -0.097924
vn 0.996535 -0.066428 -0.050052
vn 0.996535 -0.066429 0.050052
vn 0.929701 0.352378 0.107176
vn -0.003545 0.061301 -0.998113
vn -0.003777 0.061339 -0.998110
vn -0.920454 -0.385471 -0.064630
vn -0.997538 -0.058832 -0.038179
vn -0.997538 -0.058832 0.038179
vn -0.920454 -0.385471 0.064630
vn -0.003776 0.061339 0.998110
vn -0.003545 0.061301 0.998113
vn 0.929701 0.352378 -0.107175
vn -0.099120 -0.868979 -0.484820
vn -0.159093 -0.519170 -0.839733
vn 0.205705 -0.468135 -0.859381
vn 0.267081 -0.826129 -0.496164
vn -0.241019 -0.041322 -0.969640
vn 0.121862 0.020893 -0.992327
vn -0.322944 0.436527 -0.839733
vn 0.038020 0.509921 -0.859381
vn -0.382917 0.786336 -0.484821
vn -0.023356 0.867915 -0.496164
vn -0.404869 0.914375 -0.000000
vn -0.045822 0.998950 -0.000000
vn -0.382917 0.786335 0.484821
vn -0.023356 0.867915 0.496164
vn -0.322944 0.436527 0.839733
vn 0.038020 0.509921 0.859380
vn -0.241019 -0.041322 0.969640
vn 0.121862 0.020893 0.992327
vn -0.159093 -0.519170 0.839733
vn 0.205705 -0.468136 0.859381
vn -0.099120 -0.868979 0.484820
vn 0.267081 -0.826129 0.496164
vn -0.077168 -0.997018 0.000000
vn 0.289546 -0.957164 0.000000
vn -0.985619 -0.168981 0.000000
vn 0.985619 0.168980 0.000000
s 1
g pCube1
usemtl lambert4SG
f 65//1 66//2 67//3 68//4
s 2
f 68/1/5 67/2/6 69/3/7 70/4/8
s 3
f 71//9 72//10 73//11 74//12
s 4
f 75//13 76//14 66//15 65//16
s 5
f 78//17 77//18 79//19 80//20
s 6
f 75//21 65//22 68//23 70//24
s 2
f 82/5/25 81/6/26 72/7/27 71/8/28
s 6
f 74//29 83//30 82//31 71//32
s 4
f 74//33 73//34 84//35 83//36
s 5
f 86//37 85//38 87//39 88//40
s 2
f 70/4/8 69/3/7 81/6/26 82/5/25
s 6
f 83//30 75//21 70//24 82//31
s 4
f 83//36 84//35 76//14 75//13
s 5
f 79//19 77//18 85//38 86//37
s 2
f 67/2/6 89/9/41 90/10/42 69/3/7
f 81/6/26 69/3/7 90/10/42 91/11/43
f 72/7/27 81/6/26 91/11/43 92/12/44
s 3
f 73//11 72//10 92//45 93//46
s 4
f 84//35 73//34 93//47 94//48
f 76//14 84//35 94//48 95//49
f 66//15 76//14 95//49 96//50
s 1
f 67//3 66//2 96//51 89//52
f 97//53 98//54 78//55 80//56
s 2
f 99/13/57 97/14/58 80/15/59 79/16/60
f 100/17/61 99/13/57 79/16/60 86/18/62
f 101/19/63 100/17/61 86/18/62 88/20/64
s 3
f 102//65 101//66 88//67 87//68
s 4
f 103//69 102//70 87//71 85//72
f 104//73 103//69 85//72 77//74
f 98//75 104//73 77//74 78//76
s 2
f 105/21/77 106/22/78 99/13/57 100/17/61
f 106/22/78 107/23/79 97/14/58 99/13/57
s 1
f 107//80 108//81 98//54 97//53
s 4
f 108//82 109//83 104//73 98//75
f 109//83 110//84 103//69 104//73
f 110//84 111//85 102//70 103//69
s 3
f 111//86 112//87 101//66 102//65
s 2
f 112/24/88 105/21/77 100/17/61 101/19/63
f 113/25/89 114/26/90 106/22/78 105/21/77
f 114/26/90 115/27/91 107/23/79 106/22/78
s 1
f 115//92 116//93 108//81 107//80
s 4
f 116//94 117//95 109//83 108//82
f 117//95 118//96 110//84 109//83
f 118//96 119//97 111//85 110//84
s 3
f 119//98 120//99 112//87 111//86
s 2
f 120/28/100 113/25/89 105/21/77 112/24/88
f 121/29/101 122/30/102 114/26/90 113/25/89
f 122/30/102 123/31/103 115/27/91 114/26/90
s 1
f 123//104 124//105 116//93 115//92
s 4
f 124//106 125//107 117//95 116//94
f 125//107 126//108 118//96 117//95
f 126//108 127//109 119//97 118//96
s 3
f 127//110 128//111 120//99 119//98
s 2
f 128/32/112 121/29/101 113/25/89 120/28/100
f 91/11/43 90/10/42 122/30/102 121/29/101
f 90/10/42 89/9/41 123/31/103 122/30/102
s 1
f 89//52 96//51 124//105 123//104
s 4
f 96//50 95//49 125//107 124//106
f 95//49 94//48 126//108 125//107
f 94//48 93//47 127//109 126//108
s 3
f 93//46 92//45 128//111 127//110
s 2
f 92/12/44 91/11/43 121/29/101 128/32/112
s 12
f 1//113 3//114 17//115 24//116
s 13
f 3//117 14//118 18//119 17//120
s 14
f 5//121 7//122 21//123 20//124
s 15
f 15//125 1//126 24//127 23//128
s 16
f 2//129 4//130 13//131 16//132
s 17
f 15//133 14//134 3//135 1//136
s 13
f 10//137 5//138 20//139 19//140
s 17
f 7//141 5//142 10//143 11//144
s 15
f 7//145 11//146 22//147 21//148
s 16
f 9//149 6//150 8//151 12//152
s 13
f 14//118 10//137 19//140 18//119
s 17
f 11//144 10//143 14//134 15//133
s 15
f 11//146 15//125 23//128 22//147
s 16
f 13//131 9//149 12//152 16//132
s 13
f 17//120 18//119 27//153 26//154
f 19//140 28//155 27//153 18//119
f 20//139 29//156 28//155 19//140
s 14
f 21//123 30//157 29//158 20//124
s 15
f 22//147 31//159 30//160 21//148
f 23//128 32//161 31//159 22//147
f 24//127 25//162 32//161 23//128
s 12
f 17//115 26//163 25//164 24//116
f 35//165 4//166 2//167 36//168
s 13
f 34//169 13//170 4//171 35//172
f 33//173 9//174 13//170 34//169
f 40//175 6//176 9//174 33//173
s 14
f 39//177 8//178 6//179 40//180
s 15
f 38//181 12//182 8//183 39//184
f 37//185 16//186 12//182 38//181
f 36//187 2//188 16//186 37//185
s 13
f 41//189 33//173 34//169 42//190
f 42//190 34//169 35//172 43//191
s 12
f 43//192 35//165 36//168 44//193
s 15
f 44//194 36//187 37//185 45//195
f 45//195 37//185 38//181 46//196
f 46//196 38//181 39//184 47//197
s 14
f 47//198 39//177 40//180 48//199
s 13
f 48//200 40//175 33//173 41//189
f 49//201 41//189 42//190 50//202
f 50//202 42//190 43//191 51//203
s 12
f 51//204 43//192 44//193 52//205
s 15
f 52//206 44//194 45//195 53//207
f 53//207 45//195 46//196 54//208
f 54//208 46//196 47//197 55//209
s 14
f 55//210 47//198 48//199 56//211
s 13
f 56//212 48//200 41//189 49//201
f 57//213 49//201 50//202 58//214
f 58//214 50//202 51//203 59//215
s 12
f 59//216 51//204 52//205 60//217
s 15
f 60//218 52//206 53//207 61//219
f 61//219 53//207 54//208 62//220
f 62//220 54//208 55//209 63//221
s 14
f 63//222 55//210 56//211 64//223
s 13
f 64//224 56//212 49//201 57//213
f 28//155 57//213 58//214 27//153
f 27//153 58//214 59//215 26//154
s 12
f 26//163 59//216 60//217 25//164
s 15
f 25//162 60//218 61//219 32//161
f 32//161 61//219 62//220 31//159
f 31//159 62//220 63//221 30//160
s 14
f 30//157 63//222 64//223 29//158
s 13
f 29//156 64//224 57//213 28//155
s 23
usemtl lambert3SG
f 129/33/225 130/34/226 142/35/227 141/36/228
f 130/34/226 131/37/229 143/38/230 142/35/227
f 131/37/229 132/39/231 144/40/232 143/38/230
f 132/39/231 133/41/233 145/42/234 144/40/232
f 133/41/233 134/43/235 146/44/236 145/42/234
f 134/43/235 135/45/237 147/46/238 146/44/236
f 135/45/237 136/47/239 148/48/240 147/46/238
f 136/47/239 137/49/241 149/50/242 148/48/240
f 137/49/241 138/51/243 150/52/244 149/50/242
f 138/51/243 139/53/245 151/54/246 150/52/244
f 139/53/245 140/55/247 152/56/248 151/54/246
f 140/55/247 129/57/225 141/58/228 152/56/248
f 130/59/226 129/60/225 153/61/249
f 131/62/229 130/59/226 153/61/249
f 132/63/231 131/62/229 153/61/249
f 133/64/233 132/63/231 153/61/249
f 134/65/235 133/64/233 153/61/249
f 135/66/237 134/65/235 153/61/249
f 136/67/239 135/66/237 153/61/249
f 137/68/241 136/67/239 153/61/249
f 138/69/243 137/68/241 153/61/249
f 139/70/245 138/69/243 153/61/249
f 140/71/247 139/70/245 153/61/249
f 129/60/225 140/71/247 153/61/249
f 141/72/228 142/73/227 154/74/250
f 142/73/227 143/75/230 154/74/250
f 143/75/230 144/76/232 154/74/250
f 144/76/232 145/77/234 154/74/250
f 145/77/234 146/78/236 154/74/250
f 146/78/236 147/79/238 154/74/250
f 147/79/238 148/80/240 154/74/250
f 148/80/240 149/81/242 154/74/250
f 149/81/242 150/82/244 154/74/250
f 150/82/244 151/83/246 154/74/250
f 151/83/246 152/84/248 154/74/250
f 152/84/248 141/72/228 154/74/250
